<?xml version="1.0" encoding="UTF-8" standalone="no"?>
<!-- Created with Inkscape (http://www.inkscape.org/) -->

<svg
   width="210mm"
   height="297mm"
   viewBox="0 0 210 297"
   version="1.1"
   id="svg609"
   inkscape:version="1.1.2 (b8e25be833, 2022-02-05)"
   sodipodi:docname="man.svg"
   xmlns:inkscape="http://www.inkscape.org/namespaces/inkscape"
   xmlns:sodipodi="http://sodipodi.sourceforge.net/DTD/sodipodi-0.dtd"
   xmlns="http://www.w3.org/2000/svg"
   xmlns:svg="http://www.w3.org/2000/svg">
  <sodipodi:namedview
     id="namedview611"
     pagecolor="#ffffff"
     bordercolor="#cccccc"
     borderopacity="1"
     inkscape:pageshadow="0"
     inkscape:pageopacity="1"
     inkscape:pagecheckerboard="0"
     inkscape:document-units="mm"
     showgrid="false"
     inkscape:zoom="0.68595679"
     inkscape:cx="397.25534"
     inkscape:cy="677.88526"
     inkscape:window-width="1920"
     inkscape:window-height="974"
     inkscape:window-x="-11"
     inkscape:window-y="-11"
     inkscape:window-maximized="1"
     inkscape:current-layer="layer1" />
  <defs
     id="defs606" />
  <g
     inkscape:label="Capa 1"
     inkscape:groupmode="layer"
     id="layer1">
    <path
       id="path252"
       style="fill:#000000;stroke-width:1.06649"
       d="m 111.95492,10.685118 c -8.1222,-0.05524 -16.342109,3.47973 -20.296376,9.469053 -6.999419,10.601743 -6.029894,18.835994 3.151455,26.774168 3.050898,2.637814 7.176001,5.238481 9.167761,5.78048 7.86767,2.141143 19.65143,-0.714191 25.35869,-6.145287 5.44072,-5.177481 7.693,-15.804597 4.79545,-22.62659 -1.70844,-4.022275 -7.65526,-9.289411 -12.94857,-11.469419 -2.88721,-1.189087 -6.05014,-1.760758 -9.22841,-1.782405 z M 90.985173,59.846306 c -16.816166,-0.01307 -19.200296,0.403126 -23.620686,1.871157 -7.363437,2.445512 -13.81023,7.695951 -17.599879,14.334133 l -2.751095,4.819333 0.295761,40.848461 0.295766,40.84855 2.976977,1.97344 c 2.222466,1.47264 3.882285,1.79576 6.547114,1.27618 7.16085,-1.39606 7.285399,-2.04842 7.822497,-40.84038 l 0.485303,-35.039727 h 6.64868 6.648678 v 92.977937 c 0,103.08823 -0.48189,96.52358 7.303804,99.53387 1.897424,0.73361 4.103349,1.35154 4.901579,1.3731 3.447372,0.0936 9.428508,-3.11104 11.536668,-6.18032 2.21633,-3.2269 2.28614,-4.93628 2.29002,-57.33379 v -54.00736 h 5.65988 c 3.11296,0 6.04217,-0.11236 6.50914,-0.25036 0.46693,-0.138 1.10365,24.68271 1.41494,55.15835 0.54757,53.60802 0.63919,55.4824 2.82697,57.62725 2.65217,2.60026 7.59677,5.0253 10.24598,5.0253 3.66472,0 9.6984,-3.33679 11.59725,-6.41453 1.77341,-2.87449 1.95868,-10.65977 2.26422,-95.32031 l 0.33219,-92.189084 h 6.17705 6.17549 l 0.0496,31.901794 c 0.0264,17.54614 0.48745,33.9204 1.0237,36.3872 1.60158,7.36794 8.08364,10.25975 13.79937,6.15611 2.61179,-1.87522 2.68624,-2.38009 3.23942,-22.27656 0.31129,-11.19678 0.31129,-29.6624 0,-41.03566 -0.52515,-19.185797 -0.75799,-21.005349 -3.2152,-25.200495 -3.58449,-6.119809 -7.58721,-9.723433 -14.33163,-12.904446 l -5.65991,-2.669517 -39.65548,-0.318986 c -9.42236,-0.07581 -16.632125,-0.126594 -22.237592,-0.130514 z" />
  </g>
</svg>
