<?xml version="1.0" encoding="UTF-8" standalone="no"?>
<!-- Created with Inkscape (http://www.inkscape.org/) -->

<svg
   width="210mm"
   height="297mm"
   viewBox="0 0 793.70081 1122.5197"
   version="1.1"
   id="svg5"
   inkscape:version="1.1.2 (b8e25be833, 2022-02-05)"
   sodipodi:docname="woman.svg"
   xmlns:inkscape="http://www.inkscape.org/namespaces/inkscape"
   xmlns:sodipodi="http://sodipodi.sourceforge.net/DTD/sodipodi-0.dtd"
   xmlns="http://www.w3.org/2000/svg"
   xmlns:svg="http://www.w3.org/2000/svg">
  <sodipodi:namedview
     id="namedview7"
     pagecolor="#ffffff"
     bordercolor="#cccccc"
     borderopacity="1"
     inkscape:pageshadow="0"
     inkscape:pageopacity="1"
     inkscape:pagecheckerboard="0"
     inkscape:document-units="mm"
     showgrid="false"
     inkscape:zoom="0.68595679"
     inkscape:cx="615.1991"
     inkscape:cy="721.6198"
     inkscape:window-width="1920"
     inkscape:window-height="974"
     inkscape:window-x="-11"
     inkscape:window-y="-11"
     inkscape:window-maximized="1"
     inkscape:current-layer="layer1" />
  <defs
     id="defs2" />
  <g
     inkscape:label="Capa 1"
     inkscape:groupmode="layer"
     id="layer1">
    <path
       id="path213"
       style="fill:#000000;stroke-width:3.90071"
       d="m 410.02681,92.687104 c -13.3053,-0.11196 -27.20696,2.541131 -41.80155,7.950076 -37.05312,13.7324 -55.08846,35.70001 -54.90615,66.88073 0.16512,28.26868 20.77867,53.74357 54.90615,67.85827 35.04641,14.49475 91.72355,1.31525 115.45979,-26.84771 26.73113,-31.71644 22.59186,-64.39892 -11.67214,-92.15328 -19.29494,-15.62918 -39.81058,-23.501334 -61.9861,-23.688086 z M 399.02673,264.1929 c -101.78691,-0.15489 -121.22189,0.64953 -135.69148,5.61047 -30.10526,10.32165 -51.80668,26.67626 -64.94538,48.94209 -11.81234,20.0181 -67.8465,159.22485 -88.04205,218.71982 -9.14441,26.93887 -9.25482,28.80515 -2.14579,37.33201 15.81471,18.9688 43.59452,19.76925 60.35907,1.74198 4.42173,-4.75477 25.41234,-54.15988 46.64135,-109.79078 l 38.59466,-101.14576 17.61432,0.051 c 9.68691,0.0292 19.8771,1.19712 22.64274,2.59443 3.54441,1.79079 -12.37201,51.52796 -53.92757,168.52683 -32.4249,91.2917 -60.07633,169.24886 -61.44378,173.24316 -2.27763,6.65285 -0.19015,7.45276 24.87109,9.51138 15.0465,1.23596 41.92126,2.24695 59.71648,2.24695 h 32.35185 v 132.64958 c 0,157.19964 0.66076,163.04704 19.36514,172.01084 19.46975,9.3306 36.24403,8.3473 50.64409,-2.9697 l 12.12606,-9.5346 2.93569,-105.14394 c 1.61316,-57.83024 2.92981,-123.56731 2.92981,-146.08039 v -40.93179 h 23.9397 23.93964 l 1.36175,146.87261 1.36174,146.87261 10.02152,7.876 c 14.0095,11.0048 45.14798,11.0053 59.15649,0 l 10.02152,-7.876 1.23795,-146.77996 1.23797,-146.77531 60.62432,-0.95902 60.62435,-0.95899 -62.76423,-174.62839 c -34.52033,-96.04647 -62.85602,-175.80104 -62.96466,-177.22746 -0.33065,-4.34002 37.23265,-2.88745 44.82568,1.73271 4.13769,2.51762 22.01768,43.84713 42.81551,98.9822 19.63935,52.06389 38.61746,99.09211 42.17884,104.50461 12.3819,18.81765 33.42784,21.90903 54.45227,8.00567 9.35766,-6.18813 13.53494,-12.03268 13.53494,-18.93008 0,-16.5112 -82.90212,-228.20299 -95.99444,-245.12279 -15.37691,-19.87234 -52.74699,-43.72357 -76.64108,-48.91431 -12.15758,-2.64111 -60.59533,-4.14046 -137.56608,-4.25764 z" />
    <path
       id="path252"
       style="fill:#000000;stroke-width:1.45782"
       d="m 1636.9071,1671.5721 c -10.4602,-0.08 -21.0462,5.0486 -26.1387,13.7383 -9.0142,15.3817 -7.7656,27.3285 4.0586,38.8457 3.9291,3.8271 9.2416,7.6003 11.8067,8.3867 10.1324,3.1065 25.3081,-1.0362 32.6582,-8.916 7.0068,-7.5118 9.9074,-22.9303 6.1758,-32.8281 -2.2002,-5.8358 -9.8588,-13.4777 -16.6758,-16.6406 -3.7183,-1.7252 -7.7917,-2.5546 -11.8848,-2.586 z m -27.0059,71.3262 c -21.6567,-0.017 -24.7271,0.5849 -30.4199,2.7148 -9.483,3.5481 -17.7855,11.1658 -22.666,20.7969 l -3.543,6.9922 0.3809,59.2656 0.3809,59.2657 3.8339,2.8632 c 2.8622,2.1366 4.9998,2.6054 8.4317,1.8516 9.2221,-2.0255 9.3825,-2.972 10.0742,-59.2539 l 0.625,-50.8379 h 8.5625 8.5625 v 134.8984 c 0,149.5671 -0.6206,140.0427 9.4062,144.4102 2.4436,1.0644 5.2845,1.9609 6.3125,1.9922 4.4397,0.1355 12.1425,-4.5137 14.8575,-8.9668 2.8543,-4.6818 2.9442,-7.1619 2.9492,-83.1836 l 0,-78.3574 h 7.2891 c 4.009,0 7.7814,-0.1629 8.3828,-0.3633 0.6013,-0.2005 1.4213,35.8113 1.8222,80.0273 0.7052,77.778 0.8232,80.4975 3.6407,83.6094 3.4156,3.7726 9.7835,7.291 13.1953,7.291 4.7196,0 12.4901,-4.8412 14.9355,-9.3066 2.2839,-4.1705 2.5225,-15.4659 2.916,-138.2969 l 0.4278,-133.7539 h 7.9551 7.9531 l 0.064,46.2852 c 0.035,25.4571 0.6278,49.2139 1.3184,52.7929 2.0626,10.6899 10.4105,14.8855 17.7715,8.9317 3.3636,-2.7207 3.4595,-3.4532 4.1719,-32.3203 0.4009,-16.245 0.4009,-43.0361 0,-59.5372 -0.6763,-27.836 -0.9762,-30.4759 -4.1407,-36.5625 -4.6163,-8.879 -9.7712,-14.1074 -18.457,-18.7226 l -7.2891,-3.8731 -51.0703,-0.4628 c -12.1346,-0.1099 -21.4197,-0.1838 -28.6387,-0.1895 z" />
  </g>
</svg>
